<svg width="20" height="20" viewBox="0 0 20 20" fill="none" xmlns="http://www.w3.org/2000/svg">
<path d="M4.15341 5.9975C5.16041 5.9975 5.97674 5.18116 5.97674 4.17416C5.97674 3.16716 5.16041 2.35083 4.15341 2.35083C3.14641 2.35083 2.33008 3.16716 2.33008 4.17416C2.33008 5.18116 3.14641 5.9975 4.15341 5.9975Z" fill="#33354D"/>
<path d="M7.69841 7.37915V17.495H10.8392V12.4925C10.8392 11.1725 11.0876 9.89415 12.7242 9.89415C14.3384 9.89415 14.3584 11.4033 14.3584 12.5758V17.4958H17.5009V11.9483C17.5009 9.22332 16.9142 7.12915 13.7292 7.12915C12.2001 7.12915 11.1751 7.96832 10.7559 8.76248H10.7134V7.37915H7.69841ZM2.58008 7.37915H5.72591V17.495H2.58008V7.37915Z" fill="#33354D"/>
</svg>
